HIERARCHY
ROOT pelvis
{
	OFFSET 0.003123 -0.351407 0.012037
	CHANNELS 6 Xposition Yposition Zposition Zrotation Yrotation Xrotation 
	JOINT left_hip
	{
		OFFSET 0.058189 -0.092763 -0.026001
		CHANNELS 3 Zrotation Yrotation Xrotation
		JOINT left_knee
		{
			OFFSET 0.054695 -0.378753 -0.009396
			CHANNELS 3 Zrotation Yrotation Xrotation
			JOINT left_ankle
			{
				OFFSET -0.043453 -0.403059 -0.031876
				CHANNELS 3 Zrotation Yrotation Xrotation
				JOINT left_foot
				{
					OFFSET 0.047257 -0.057997 0.118216
					CHANNELS 3 Zrotation Yrotation Xrotation
					End Site
					{
						OFFSET 0.000000 0.000000 0.000000
					}
				}
			}
		}
	}
	JOINT right_hip
	{
		OFFSET -0.063267 -0.103908 -0.021250
		CHANNELS 3 Zrotation Yrotation Xrotation
		JOINT right_knee
		{
			OFFSET -0.044210 -0.362380 -0.016824
			CHANNELS 3 Zrotation Yrotation Xrotation
			JOINT right_ankle
			{
				OFFSET 0.015417 -0.410728 -0.020192
				CHANNELS 3 Zrotation Yrotation Xrotation
				JOINT right_foot
				{
					OFFSET -0.038812 -0.058328 0.119049
					CHANNELS 3 Zrotation Yrotation Xrotation
					End Site
					{
						OFFSET 0.000000 0.000000 0.000000
					}
				}
			}
		}
	}
	JOINT spine_1
	{
		OFFSET -0.002763 0.109891 -0.027618
		CHANNELS 3 Zrotation Yrotation Xrotation
		JOINT spine_2
		{
			OFFSET 0.009448 0.131853 -0.005940
			CHANNELS 3 Zrotation Yrotation Xrotation
			JOINT spine_3
			{
				OFFSET -0.011330 0.052235 0.028447
				CHANNELS 3 Zrotation Yrotation Xrotation
				JOINT neck
				{
					OFFSET -0.012164 0.165167 -0.031615
					CHANNELS 3 Zrotation Yrotation Xrotation
					JOINT head
					{
						OFFSET 0.024783 0.160452 0.020737
						CHANNELS 3 Zrotation Yrotation Xrotation
						End Site
						{
							OFFSET 0.000000 0.000000 0.000000
						}
					}
				}
				JOINT left_collar
				{
					OFFSET 0.046364 0.084944 -0.007220
					CHANNELS 3 Zrotation Yrotation Xrotation
					JOINT left_shoulder
					{
						OFFSET 0.119239 0.057728 -0.015461
						CHANNELS 3 Zrotation Yrotation Xrotation
						JOINT left_elbow
						{
							OFFSET 0.254123 -0.072151 -0.042459
							CHANNELS 3 Zrotation Yrotation Xrotation
							JOINT left_wrist
							{
								OFFSET 0.251987 0.023221 -0.002472
								CHANNELS 3 Zrotation Yrotation Xrotation
								JOINT left_index_1
								{
									OFFSET 0.101902 -0.008688 0.019351
									CHANNELS 3 Zrotation Yrotation Xrotation
									JOINT left_index_2
									{
										OFFSET 0.030149 -0.011154 0.001151
										CHANNELS 3 Zrotation Yrotation Xrotation
										JOINT left_index_3
										{
											OFFSET 0.006504 -0.021577 -0.002433
											CHANNELS 3 Zrotation Yrotation Xrotation
											End Site
											{
												OFFSET 0.000000 0.000000 0.000000
											}
										}
									}
								}
								JOINT left_middle_1
								{
									OFFSET 0.109398 -0.006328 -0.003981
									CHANNELS 3 Zrotation Yrotation Xrotation
									JOINT left_middle_2
									{
										OFFSET 0.026472 -0.015218 -0.004641
										CHANNELS 3 Zrotation Yrotation Xrotation
										JOINT left_middle_3
										{
											OFFSET 0.005022 -0.023347 -0.001911
											CHANNELS 3 Zrotation Yrotation Xrotation
											End Site
											{
												OFFSET 0.000000 0.000000 0.000000
											}
										}
									}
								}
								JOINT left_pinky_1
								{
									OFFSET 0.084047 -0.014539 -0.043750
									CHANNELS 3 Zrotation Yrotation Xrotation
									JOINT left_pinky_2
									{
										OFFSET 0.012124 -0.014448 -0.005375
										CHANNELS 3 Zrotation Yrotation Xrotation
										JOINT left_pinky_3
										{
											OFFSET 0.003798 -0.018853 0.000167
											CHANNELS 3 Zrotation Yrotation Xrotation
											End Site
											{
												OFFSET 0.000000 0.000000 0.000000
											}
										}
									}
								}
								JOINT left_ring_1
								{
									OFFSET 0.097444 -0.009268 -0.027345
									CHANNELS 3 Zrotation Yrotation Xrotation
									JOINT left_ring_2
									{
										OFFSET 0.023561 -0.016057 -0.001895
										CHANNELS 3 Zrotation Yrotation Xrotation
										JOINT left_ring_3
										{
											OFFSET 0.004257 -0.023548 0.000814
											CHANNELS 3 Zrotation Yrotation Xrotation
											End Site
											{
												OFFSET 0.000000 0.000000 0.000000
											}
										}
									}
								}
								JOINT left_thumb_1
								{
									OFFSET 0.040636 -0.017977 0.025611
									CHANNELS 3 Zrotation Yrotation Xrotation
									JOINT left_thumb_2
									{
										OFFSET 0.021637 -0.017639 0.011623
										CHANNELS 3 Zrotation Yrotation Xrotation
										JOINT left_thumb_3
										{
											OFFSET 0.024002 -0.008356 0.006548
											CHANNELS 3 Zrotation Yrotation Xrotation
											End Site
											{
												OFFSET 0.000000 0.000000 0.000000
											}
										}
									}
								}
							}
						}
					}
				}
				JOINT right_collar
				{
					OFFSET -0.047695 0.084339 -0.013400
					CHANNELS 3 Zrotation Yrotation Xrotation
					JOINT right_shoulder
					{
						OFFSET -0.102578 0.053524 -0.012669
						CHANNELS 3 Zrotation Yrotation Xrotation
						JOINT right_elbow
						{
							OFFSET -0.271150 -0.036492 -0.026467
							CHANNELS 3 Zrotation Yrotation Xrotation
							JOINT right_wrist
							{
								OFFSET -0.249267 -0.004533 -0.015325
								CHANNELS 3 Zrotation Yrotation Xrotation
								JOINT right_index_1
								{
									OFFSET -0.099881 -0.011783 0.019600
									CHANNELS 3 Zrotation Yrotation Xrotation
									JOINT right_index_2
									{
										OFFSET -0.030148 -0.011154 0.001151
										CHANNELS 3 Zrotation Yrotation Xrotation
										JOINT right_index_3
										{
											OFFSET -0.006505 -0.021577 -0.002432
											CHANNELS 3 Zrotation Yrotation Xrotation
											End Site
											{
												OFFSET 0.000000 0.000000 0.000000
											}
										}
									}
								}
								JOINT right_middle_1
								{
									OFFSET -0.107376 -0.009422 -0.003734
									CHANNELS 3 Zrotation Yrotation Xrotation
									JOINT right_middle_2
									{
										OFFSET -0.026472 -0.015218 -0.004641
										CHANNELS 3 Zrotation Yrotation Xrotation
										JOINT right_middle_3
										{
											OFFSET -0.005022 -0.023347 -0.001911
											CHANNELS 3 Zrotation Yrotation Xrotation
											End Site
											{
												OFFSET 0.000000 0.000000 0.000000
											}
										}
									}
								}
								JOINT right_pinky_1
								{
									OFFSET -0.082027 -0.017634 -0.043503
									CHANNELS 3 Zrotation Yrotation Xrotation
									JOINT right_pinky_2
									{
										OFFSET -0.012123 -0.014448 -0.005374
										CHANNELS 3 Zrotation Yrotation Xrotation
										JOINT right_pinky_3
										{
											OFFSET -0.003798 -0.018852 0.000167
											CHANNELS 3 Zrotation Yrotation Xrotation
											End Site
											{
												OFFSET 0.000000 0.000000 0.000000
											}
										}
									}
								}
								JOINT right_ring_1
								{
									OFFSET -0.095423 -0.012362 -0.027099
									CHANNELS 3 Zrotation Yrotation Xrotation
									JOINT right_ring_2
									{
										OFFSET -0.023561 -0.016057 -0.001895
										CHANNELS 3 Zrotation Yrotation Xrotation
										JOINT right_ring_3
										{
											OFFSET -0.004257 -0.023548 0.000816
											CHANNELS 3 Zrotation Yrotation Xrotation
											End Site
											{
												OFFSET 0.000000 0.000000 0.000000
											}
										}
									}
								}
								JOINT right_thumb_1
								{
									OFFSET -0.038613 -0.021074 0.025861
									CHANNELS 3 Zrotation Yrotation Xrotation
									JOINT right_thumb_2
									{
										OFFSET -0.021636 -0.017639 0.011623
										CHANNELS 3 Zrotation Yrotation Xrotation
										JOINT right_thumb_3
										{
											OFFSET -0.024004 -0.008353 0.006547
											CHANNELS 3 Zrotation Yrotation Xrotation
											End Site
											{
												OFFSET 0.000000 0.000000 0.000000
											}
										}
									}
								}
							}
						}
					}
				}
			}
		}
	}
}
MOTION
Frames: 5
Frame Time: 0.050000
-0.075352 1.037804 0.281393 -4.982801 -4.304978 -10.073473 7.912707 0.109726 1.709917 10.113217 0.024693 -4.523888 -18.445208 -6.284914 30.148155 0.000000 0.000000 0.000000 -1.238599 -1.682200 16.329469 -7.188790 1.540606 11.256259 15.657731 7.431867 25.431351 0.000000 0.000000 0.000000 -3.055072 -1.706742 32.989266 -6.982175 -4.111043 -27.460944 11.215859 20.962725 18.578104 0.865490 -2.771873 12.804787 0.000000 0.000000 0.000000 -4.353332 -4.020108 0.806532 -37.575479 -31.187457 -7.657601 -88.129312 -65.778941 70.155845 22.915366 -4.782640 -1.530269 5.315777 2.017729 0.437302 11.453348 -3.047473 -11.290832 0.000000 0.000000 0.000000 1.724365 -3.452810 -1.501497 5.453103 -1.263109 -7.337412 0.000000 0.000000 0.000000 13.551752 -15.720552 -15.940978 -18.748880 -1.111067 -1.885004 0.000000 0.000000 0.000000 -1.372592 -5.024732 -3.014995 -5.311531 -1.339203 -5.966482 0.000000 0.000000 0.000000 14.259017 12.316021 3.603052 -10.110629 -4.370603 1.495073 0.000000 0.000000 0.000000 10.458522 12.487427 9.112643 40.577866 28.976330 3.539741 67.169453 69.280215 50.437072 -5.571006 12.356832 -6.348834 3.920329 0.575075 0.015291 -10.815114 2.485059 -9.448142 0.000000 0.000000 0.000000 13.158304 6.265666 -4.417717 2.385812 1.064335 -5.504407 0.000000 0.000000 0.000000 -9.020710 13.842797 -16.564078 23.097844 -1.095394 3.267984 0.000000 0.000000 0.000000 9.207967 6.592865 -4.123466 10.284118 1.283460 -2.409688 0.000000 0.000000 0.000000 -5.158271 -8.643404 4.163132 12.288385 1.220534 2.767708 0.000000 0.000000 0.000000 
-0.088072 1.037159 0.271659 -4.202058 -4.125456 -10.536820 7.763657 0.136347 2.025033 10.634515 0.118655 -5.080937 -18.013717 -5.638639 30.207889 0.000000 0.000000 0.000000 -1.226072 -1.777192 17.266864 -6.925558 1.351527 9.911137 14.929076 6.901387 24.818884 0.000000 0.000000 0.000000 -3.596727 -1.549486 32.306949 -5.762866 -4.309044 -26.982475 10.091733 21.392201 18.720219 0.890807 -2.746759 12.630619 0.000000 0.000000 0.000000 -4.589242 -3.376433 0.374392 -37.885234 -28.337526 -7.701125 -94.783664 -64.614008 75.142046 22.957916 -5.277612 0.054001 4.201307 2.125665 0.525235 11.940168 -3.158641 -11.135289 0.000000 0.000000 0.000000 1.981064 -2.874170 -1.176860 5.883928 -1.316280 -7.216584 0.000000 0.000000 0.000000 14.071982 -15.388221 -14.950312 -18.871061 -1.203226 -2.229703 0.000000 0.000000 0.000000 -1.141317 -4.414450 -2.660749 -4.968249 -1.228582 -5.796745 0.000000 0.000000 0.000000 14.305804 13.609669 5.249687 -9.227193 -4.994432 1.113441 0.000000 0.000000 0.000000 10.961855 11.941101 8.929581 41.159063 27.037833 3.065851 75.170684 68.726692 56.889407 -4.674810 11.321424 -4.249128 5.109205 0.590482 0.069655 -12.001316 2.605016 -9.014052 0.000000 0.000000 0.000000 12.573115 5.768968 -4.270142 2.684639 1.024654 -5.382150 0.000000 0.000000 0.000000 -10.504325 13.600592 -15.610044 24.863421 -0.980173 3.019931 0.000000 0.000000 0.000000 9.338380 6.233561 -3.983866 8.749006 1.227997 -2.997043 0.000000 0.000000 0.000000 -5.051986 -8.092436 3.980719 13.649720 0.434356 3.373681 0.000000 0.000000 0.000000 
-0.101734 1.035870 0.261430 -3.937095 -4.660561 -10.666947 8.342348 0.154871 2.206466 10.966087 0.230684 -5.702497 -17.365603 -5.033091 30.065106 0.000000 0.000000 0.000000 -0.686141 -1.891157 17.610556 -6.952156 1.228338 8.751961 14.605559 7.191117 23.651998 0.000000 0.000000 0.000000 -3.019885 -1.620935 31.212756 -6.472873 -3.969627 -26.196170 9.802552 21.176066 18.424848 0.967674 -2.759796 12.658185 0.000000 0.000000 0.000000 -4.403643 -2.595261 0.038196 -38.422887 -25.631028 -7.672707 -98.680021 -63.346765 77.735294 22.625270 -5.469478 0.425339 3.967649 2.113857 0.533025 12.128615 -3.119310 -10.656642 0.000000 0.000000 0.000000 2.118682 -2.988219 -1.222774 4.388761 -1.273932 -6.947590 0.000000 0.000000 0.000000 14.005296 -15.227898 -14.628018 -18.632402 -1.876352 -4.202067 0.000000 0.000000 0.000000 -0.479717 -4.139917 -2.493279 -6.590649 -1.753065 -7.750045 0.000000 0.000000 0.000000 14.440457 13.514414 5.150261 -9.101803 -5.211591 1.027792 0.000000 0.000000 0.000000 11.284014 11.600901 8.697946 42.159524 25.640453 2.761645 79.469208 67.526306 59.333087 -3.768151 10.820148 -1.610260 5.117057 0.641816 0.042803 -10.464377 2.552197 -7.624096 0.000000 0.000000 0.000000 12.669516 5.631535 -4.321651 3.333059 0.953215 -5.267530 0.000000 0.000000 0.000000 -10.780260 13.715438 -15.082955 26.145373 -0.716082 2.357961 0.000000 0.000000 0.000000 8.764485 6.075968 -3.958907 11.680986 0.903244 -1.578795 0.000000 0.000000 0.000000 -4.491262 -8.603891 5.038038 12.644771 0.939156 3.070250 0.000000 0.000000 0.000000 
-0.114925 1.035225 0.250706 -3.505074 -4.551778 -11.039660 8.377219 0.172598 2.448501 11.457123 0.363598 -6.391235 -16.957704 -4.779581 29.680812 0.000000 0.000000 0.000000 -0.407764 -2.003141 18.148452 -6.762314 1.090415 7.681430 14.330638 7.198709 23.143316 0.000000 0.000000 0.000000 -2.877899 -1.633453 30.892458 -6.683899 -3.798002 -25.861480 9.518369 20.544538 18.412102 0.727750 -2.667769 12.644160 0.000000 0.000000 0.000000 -4.687807 -1.987955 -0.324635 -38.407133 -23.289355 -7.641656 -101.209881 -62.376345 79.322323 22.113001 -5.718988 0.323062 3.683758 2.119472 0.544792 12.868095 -3.024481 -9.968418 0.000000 0.000000 0.000000 1.798258 -3.051614 -1.299739 4.321419 -1.176697 -6.224340 0.000000 0.000000 0.000000 13.886897 -14.894668 -14.211678 -21.755030 -2.255001 -4.565760 0.000000 0.000000 0.000000 -1.436105 -4.245285 -2.570756 -8.051513 -1.727845 -6.953850 0.000000 0.000000 0.000000 13.661226 12.905833 4.851343 -9.159980 -5.424169 0.986252 0.000000 0.000000 0.000000 11.299860 11.269098 8.387286 42.947010 24.699122 2.545066 82.173605 66.409587 60.453738 -3.041234 10.455872 0.473782 5.697345 0.041872 0.239213 -11.769837 2.764358 -7.489452 0.000000 0.000000 0.000000 12.832253 4.939267 -4.127744 2.022180 0.878186 -4.801817 0.000000 0.000000 0.000000 -12.093298 13.361117 -13.717013 27.273215 -0.639187 2.060447 0.000000 0.000000 0.000000 8.206849 5.261681 -3.540041 11.218462 0.673168 -1.249136 0.000000 0.000000 0.000000 -3.850420 -8.569901 5.557986 11.919666 1.200223 2.883379 0.000000 0.000000 0.000000 
-0.128117 1.035870 0.239487 -3.048904 -3.978641 -11.496756 8.254414 0.181794 2.667538 11.853447 0.517652 -7.123083 -16.561516 -4.323680 29.437358 0.000000 0.000000 0.000000 0.055654 -2.167882 18.606439 -6.644276 1.005306 6.975820 13.694640 6.805453 22.596796 0.000000 0.000000 0.000000 -3.494214 -1.510863 31.031734 -4.972003 -4.165201 -25.557346 8.412716 20.878639 18.453914 0.656091 -2.630661 12.506178 0.000000 0.000000 0.000000 -4.466118 -1.854549 -0.376383 -38.708080 -21.400534 -7.780424 -102.532607 -61.688745 79.692401 21.824963 -6.102035 0.188213 3.330641 1.873021 0.473880 12.102274 -2.940257 -9.572409 0.000000 0.000000 0.000000 0.894370 -3.631600 -1.715633 2.918800 -1.069836 -5.735668 0.000000 0.000000 0.000000 14.420432 -15.941532 -15.752468 -21.058026 -1.678200 -3.196126 0.000000 0.000000 0.000000 -0.837871 -4.217944 -2.555284 -8.671449 -2.141841 -8.437998 0.000000 0.000000 0.000000 12.601359 12.337553 4.743110 -9.712281 -5.890553 1.031432 0.000000 0.000000 0.000000 11.326992 10.974356 8.279761 43.914913 24.411522 2.686223 83.667629 65.912797 61.464640 -2.703865 9.620864 2.251033 6.231709 -0.846566 0.522714 -11.916053 2.939734 -7.674555 0.000000 0.000000 0.000000 12.616832 4.566486 -4.000447 3.460807 0.543393 -3.721035 0.000000 0.000000 0.000000 -12.700315 13.147138 -12.780388 28.982599 -0.421903 1.408868 0.000000 0.000000 0.000000 8.168224 4.883801 -3.349479 12.206727 0.592102 -1.150354 0.000000 0.000000 0.000000 -3.794953 -9.477564 6.624013 11.902201 2.351076 2.658972 0.000000 0.000000 0.000000 
